<mxfile host="app.diagrams.net" modified="2024-05-08T18:16:12.579Z" agent="Mozilla/5.0 (Macintosh; Intel Mac OS X 10_15_7) AppleWebKit/537.36 (KHTML, like Gecko) Chrome/123.0.0.0 Safari/537.36" etag="8byOEfZ425hbf3o2G_iy" version="24.3.1" type="device">
  <diagram name="Page-1" id="gBM_WZmU6EJhyiVJDZm3">
    <mxGraphModel dx="1306" dy="716" grid="1" gridSize="10" guides="1" tooltips="1" connect="1" arrows="1" fold="1" page="1" pageScale="1" pageWidth="850" pageHeight="1100" math="0" shadow="0">
      <root>
        <mxCell id="0" />
        <mxCell id="1" parent="0" />
        <mxCell id="c5FgK4psDsWsgZuI2ikq-3" value="&lt;font style=&quot;font-size: 23px;&quot;&gt;Journal Program&lt;/font&gt;" style="text;align=center;fontStyle=1;verticalAlign=middle;spacingLeft=3;spacingRight=3;strokeColor=none;rotatable=0;points=[[0,0.5],[1,0.5]];portConstraint=eastwest;html=1;" vertex="1" parent="1">
          <mxGeometry x="180" y="60" width="505" height="10" as="geometry" />
        </mxCell>
        <mxCell id="c5FgK4psDsWsgZuI2ikq-4" value="Entry" style="swimlane;fontStyle=1;align=center;verticalAlign=top;childLayout=stackLayout;horizontal=1;startSize=32;horizontalStack=0;resizeParent=1;resizeParentMax=0;resizeLast=0;collapsible=1;marginBottom=0;whiteSpace=wrap;html=1;" vertex="1" parent="1">
          <mxGeometry x="470" y="108" width="160" height="148" as="geometry">
            <mxRectangle x="120" y="110" width="80" height="30" as="alternateBounds" />
          </mxGeometry>
        </mxCell>
        <mxCell id="c5FgK4psDsWsgZuI2ikq-5" value="&lt;div&gt;+ date: string&lt;/div&gt;&lt;div&gt;+ prompt: string&lt;/div&gt;&lt;div&gt;+ entryText: string&lt;/div&gt;&lt;div&gt;&lt;br&gt;&lt;/div&gt;" style="text;strokeColor=none;fillColor=none;align=left;verticalAlign=top;spacingLeft=4;spacingRight=4;overflow=hidden;rotatable=0;points=[[0,0.5],[1,0.5]];portConstraint=eastwest;whiteSpace=wrap;html=1;" vertex="1" parent="c5FgK4psDsWsgZuI2ikq-4">
          <mxGeometry y="32" width="160" height="68" as="geometry" />
        </mxCell>
        <mxCell id="c5FgK4psDsWsgZuI2ikq-6" value="" style="line;strokeWidth=1;fillColor=none;align=left;verticalAlign=middle;spacingTop=-1;spacingLeft=3;spacingRight=3;rotatable=0;labelPosition=right;points=[];portConstraint=eastwest;strokeColor=inherit;" vertex="1" parent="c5FgK4psDsWsgZuI2ikq-4">
          <mxGeometry y="100" width="160" height="8" as="geometry" />
        </mxCell>
        <mxCell id="c5FgK4psDsWsgZuI2ikq-7" value="+ displayEntry(): void&lt;div&gt;&lt;br&gt;&lt;/div&gt;&lt;div&gt;&lt;br&gt;&lt;/div&gt;" style="text;strokeColor=none;fillColor=none;align=left;verticalAlign=top;spacingLeft=4;spacingRight=4;overflow=hidden;rotatable=0;points=[[0,0.5],[1,0.5]];portConstraint=eastwest;whiteSpace=wrap;html=1;" vertex="1" parent="c5FgK4psDsWsgZuI2ikq-4">
          <mxGeometry y="108" width="160" height="40" as="geometry" />
        </mxCell>
        <mxCell id="c5FgK4psDsWsgZuI2ikq-17" style="edgeStyle=orthogonalEdgeStyle;rounded=0;orthogonalLoop=1;jettySize=auto;html=1;exitX=1;exitY=0.5;exitDx=0;exitDy=0;" edge="1" parent="c5FgK4psDsWsgZuI2ikq-4" source="c5FgK4psDsWsgZuI2ikq-5" target="c5FgK4psDsWsgZuI2ikq-5">
          <mxGeometry relative="1" as="geometry" />
        </mxCell>
        <mxCell id="c5FgK4psDsWsgZuI2ikq-12" value="Journal" style="swimlane;fontStyle=1;align=center;verticalAlign=top;childLayout=stackLayout;horizontal=1;startSize=32;horizontalStack=0;resizeParent=1;resizeParentMax=0;resizeLast=0;collapsible=1;marginBottom=0;whiteSpace=wrap;html=1;" vertex="1" parent="1">
          <mxGeometry x="220" y="108" width="190" height="240" as="geometry" />
        </mxCell>
        <mxCell id="c5FgK4psDsWsgZuI2ikq-13" value="+ entryList: list&amp;lt;entry&amp;gt;&lt;div&gt;+ promptList: list&lt;/div&gt;&lt;div&gt;+ fileName: string&lt;/div&gt;" style="text;strokeColor=none;fillColor=none;align=left;verticalAlign=top;spacingLeft=4;spacingRight=4;overflow=hidden;rotatable=0;points=[[0,0.5],[1,0.5]];portConstraint=eastwest;whiteSpace=wrap;html=1;" vertex="1" parent="c5FgK4psDsWsgZuI2ikq-12">
          <mxGeometry y="32" width="190" height="68" as="geometry" />
        </mxCell>
        <mxCell id="c5FgK4psDsWsgZuI2ikq-14" value="" style="line;strokeWidth=1;fillColor=none;align=left;verticalAlign=middle;spacingTop=-1;spacingLeft=3;spacingRight=3;rotatable=0;labelPosition=right;points=[];portConstraint=eastwest;strokeColor=inherit;" vertex="1" parent="c5FgK4psDsWsgZuI2ikq-12">
          <mxGeometry y="100" width="190" height="8" as="geometry" />
        </mxCell>
        <mxCell id="c5FgK4psDsWsgZuI2ikq-15" value="+ newEntry(): void&lt;div&gt;+ displayJournal(): void&lt;/div&gt;&lt;div&gt;+ displayMenu(): void&lt;/div&gt;&lt;div&gt;&lt;span style=&quot;background-color: initial;&quot;&gt;+ loadJournal(): void&lt;/span&gt;&lt;br&gt;&lt;/div&gt;&lt;div&gt;&lt;span style=&quot;background-color: initial;&quot;&gt;+ saveJournal(): void&lt;/span&gt;&lt;/div&gt;&lt;div&gt;&lt;div&gt;+ saveEntry(): void&lt;/div&gt;&lt;div&gt;+ pickPrompt(): string&lt;/div&gt;&lt;/div&gt;&lt;div&gt;+ displayEntry(): void&lt;/div&gt;" style="text;strokeColor=none;fillColor=none;align=left;verticalAlign=top;spacingLeft=4;spacingRight=4;overflow=hidden;rotatable=0;points=[[0,0.5],[1,0.5]];portConstraint=eastwest;whiteSpace=wrap;html=1;" vertex="1" parent="c5FgK4psDsWsgZuI2ikq-12">
          <mxGeometry y="108" width="190" height="132" as="geometry" />
        </mxCell>
        <mxCell id="c5FgK4psDsWsgZuI2ikq-18" value="&lt;font style=&quot;font-size: 14px;&quot;&gt;The menu exists in the Journal class, and is formed with the methods: displayMenu(), loadJournal(), saveJournal(), saveEntry(), and newEntry().&lt;/font&gt;&lt;div&gt;&lt;font style=&quot;font-size: 14px;&quot;&gt;The menu is what allows the user to interact with the journal to open it and make new entries/view and edit past ones.&amp;nbsp;&lt;/font&gt;&lt;span style=&quot;font-size: 14px; background-color: initial;&quot;&gt;The menu options allow the Journal class to interact with the Entry class.&lt;/span&gt;&lt;/div&gt;&lt;div&gt;&lt;span style=&quot;font-size: 14px; background-color: initial;&quot;&gt;The process of creating a new entry goes as follows:&lt;/span&gt;&lt;/div&gt;&lt;div&gt;&lt;span style=&quot;font-size: 14px;&quot;&gt;The newEntry() method is called, and this calls the promptList through the pickPrompt() method. The prompt is chosen and assigned to the new entry, which is then created with fields for a date and text that go with the prompt. This data is all held in the Entry class, which can be saved and loaded through the Journal class.&lt;/span&gt;&lt;/div&gt;&lt;div&gt;&lt;font style=&quot;font-size: 14px;&quot;&gt;&lt;br&gt;&lt;/font&gt;&lt;/div&gt;" style="text;align=left;html=1;verticalAlign=middle;rounded=0;strokeWidth=1;strokeColor=#666666;fillColor=#f5f5f5;fontColor=#333333;whiteSpace=wrap;spacingLeft=20;spacingRight=20;" vertex="1" parent="1">
          <mxGeometry x="145" y="390" width="560" height="290" as="geometry" />
        </mxCell>
      </root>
    </mxGraphModel>
  </diagram>
</mxfile>
